{
  "accessors": [
    {
      "bufferView": 1,
      "componentType": 5126,
      "count": 4515,
      "max": [
        714.8655395507813,
        116.35466003417969,
        499.486328125
      ],
      "min": [
        -14.916050910949707,
        -116.59017944335938,
        215.72926330566406
      ],
      "type": "VEC3"
    },
    {
      "bufferView": 1,
      "byteOffset": 54180,
      "componentType": 5126,
      "count": 4515,
      "max": [
        1.0,
        1.0,
        0.9999992847442627
      ],
      "min": [
        -0.9999613165855408,
        -0.9999998807907104,
        -1.0
      ],
      "type": "VEC3"
    },
    {
      "bufferView": 2,
      "componentType": 5126,
      "count": 4515,
      "max": [
        0.729411780834198,
        0.7176470756530762,
        0.7137255072593689,
        1.0
      ],
      "min": [
        0.0,
        0.0,
        0.0,
        1.0
      ],
      "type": "VEC4"
    },
    {
      "bufferView": 0,
      "componentType": 5125,
      "count": 25032,
      "type": "SCALAR"
    },
    {
      "bufferView": 1,
      "byteOffset": 108360,
      "componentType": 5126,
      "count": 2959,
      "max": [
        719.5169067382813,
        57.36723709106445,
        359.9199523925781
      ],
      "min": [
        -19.516925811767578,
        42.444087982177734,
        324.81561279296875
      ],
      "type": "VEC3"
    },
    {
      "bufferView": 1,
      "byteOffset": 143868,
      "componentType": 5126,
      "count": 2959,
      "max": [
        1.0,
        0.9998385906219482,
        0.9999999403953552
      ],
      "min": [
        -1.0,
        -0.999327540397644,
        -1.0
      ],
      "type": "VEC3"
    },
    {
      "bufferView": 2,
      "byteOffset": 72240,
      "componentType": 5126,
      "count": 2959,
      "max": [
        0.7450980544090271,
        0.7450980544090271,
        0.7450980544090271,
        1.0
      ],
      "min": [
        0.0,
        0.0,
        0.0,
        1.0
      ],
      "type": "VEC4"
    },
    {
      "bufferView": 0,
      "byteOffset": 100128,
      "componentType": 5125,
      "count": 15468,
      "type": "SCALAR"
    },
    {
      "bufferView": 1,
      "byteOffset": 179376,
      "componentType": 5126,
      "count": 43760,
      "max": [
        710.0,
        149.99996948242188,
        509.9999694824219
      ],
      "min": [
        -9.999968528747559,
        -149.99996948242188,
        -9.999968528747559
      ],
      "type": "VEC3"
    },
    {
      "bufferView": 1,
      "byteOffset": 704496,
      "componentType": 5126,
      "count": 43760,
      "max": [
        1.0,
        1.0,
        1.0
      ],
      "min": [
        -1.0,
        -1.0,
        -1.0
      ],
      "type": "VEC3"
    },
    {
      "bufferView": 2,
      "byteOffset": 119584,
      "componentType": 5126,
      "count": 43760,
      "max": [
        0.7450980544090271,
        0.7450980544090271,
        0.7450980544090271,
        1.0
      ],
      "min": [
        0.0,
        0.0,
        0.0,
        1.0
      ],
      "type": "VEC4"
    },
    {
      "bufferView": 0,
      "byteOffset": 162000,
      "componentType": 5125,
      "count": 246708,
      "type": "SCALAR"
    },
    {
      "bufferView": 1,
      "byteOffset": 1229616,
      "componentType": 5126,
      "count": 23419,
      "max": [
        711.0,
        171.01528930664063,
        510.9999694824219
      ],
      "min": [
        -10.999968528747559,
        -171.01522827148438,
        -10.999968528747559
      ],
      "type": "VEC3"
    },
    {
      "bufferView": 1,
      "byteOffset": 1510644,
      "componentType": 5126,
      "count": 23419,
      "max": [
        1.0,
        1.0,
        1.0
      ],
      "min": [
        -1.0,
        -1.0,
        -1.0
      ],
      "type": "VEC3"
    },
    {
      "bufferView": 2,
      "byteOffset": 819744,
      "componentType": 5126,
      "count": 23419,
      "max": [
        0.30980393290519714,
        0.30980393290519714,
        0.30980393290519714,
        1.0
      ],
      "min": [
        0.0,
        0.0,
        0.0,
        1.0
      ],
      "type": "VEC4"
    },
    {
      "bufferView": 0,
      "byteOffset": 1148832,
      "componentType": 5125,
      "count": 130944,
      "type": "SCALAR"
    },
    {
      "bufferView": 1,
      "byteOffset": 1791672,
      "componentType": 5126,
      "count": 65532,
      "max": [
        719.6483154296875,
        168.0,
        525.177490234375
      ],
      "min": [
        -20.350460052490234,
        -178.94784545898438,
        510.1775817871094
      ],
      "type": "VEC3"
    },
    {
      "bufferView": 1,
      "byteOffset": 2578056,
      "componentType": 5126,
      "count": 65532,
      "max": [
        1.0,
        0.005761042237281799,
        1.0
      ],
      "min": [
        -1.0,
        -1.0,
        -1.0
      ],
      "type": "VEC3"
    },
    {
      "bufferView": 2,
      "byteOffset": 1194448,
      "componentType": 5126,
      "count": 65532,
      "max": [
        0.8588235378265381,
        0.7960784435272217,
        0.7098039388656616,
        1.0
      ],
      "min": [
        0.0,
        0.0,
        0.0,
        1.0
      ],
      "type": "VEC4"
    },
    {
      "bufferView": 0,
      "byteOffset": 1672608,
      "componentType": 5125,
      "count": 334989,
      "type": "SCALAR"
    },
    {
      "bufferView": 1,
      "byteOffset": 3364440,
      "componentType": 5126,
      "count": 65532,
      "max": [
        719.6483154296875,
        181.05166625976563,
        525.177490234375
      ],
      "min": [
        -20.350460052490234,
        -178.94784545898438,
        510.1775817871094
      ],
      "type": "VEC3"
    },
    {
      "bufferView": 1,
      "byteOffset": 4150824,
      "componentType": 5126,
      "count": 65532,
      "max": [
        1.0,
        1.0,
        1.0
      ],
      "min": [
        -1.0,
        -1.0,
        -1.0
      ],
      "type": "VEC3"
    },
    {
      "bufferView": 2,
      "byteOffset": 2242960,
      "componentType": 5126,
      "count": 65532,
      "max": [
        0.843137264251709,
        0.7686274647712708,
        0.6627451181411743,
        1.0
      ],
      "min": [
        0.0,
        0.0,
        0.0,
        1.0
      ],
      "type": "VEC4"
    },
    {
      "bufferView": 0,
      "byteOffset": 3012564,
      "componentType": 5125,
      "count": 316848,
      "type": "SCALAR"
    },
    {
      "bufferView": 1,
      "byteOffset": 4937208,
      "componentType": 5126,
      "count": 65532,
      "max": [
        719.6483154296875,
        181.0,
        525.177490234375
      ],
      "min": [
        -20.350460052490234,
        17.0,
        261.0
      ],
      "type": "VEC3"
    },
    {
      "bufferView": 1,
      "byteOffset": 5723592,
      "componentType": 5126,
      "count": 65532,
      "max": [
        1.0,
        0.4885408878326416,
        1.0
      ],
      "min": [
        -1.0,
        -1.0,
        -1.0
      ],
      "type": "VEC3"
    },
    {
      "bufferView": 2,
      "byteOffset": 3291472,
      "componentType": 5126,
      "count": 65532,
      "max": [
        0.8470588326454163,
        0.7764706015586853,
        0.6509804129600525,
        1.0
      ],
      "min": [
        0.0,
        0.0,
        0.0,
        1.0
      ],
      "type": "VEC4"
    },
    {
      "bufferView": 0,
      "byteOffset": 4279956,
      "componentType": 5125,
      "count": 347538,
      "type": "SCALAR"
    },
    {
      "bufferView": 1,
      "byteOffset": 6509976,
      "componentType": 5126,
      "count": 65532,
      "max": [
        719.6484375,
        75.85494232177734,
        429.9957275390625
      ],
      "min": [
        -20.350500106811523,
        59.855010986328125,
        179.99581909179688
      ],
      "type": "VEC3"
    },
    {
      "bufferView": 1,
      "byteOffset": 7296360,
      "componentType": 5126,
      "count": 65532,
      "max": [
        1.0,
        1.0,
        1.0
      ],
      "min": [
        -1.0,
        -1.0,
        -1.0
      ],
      "type": "VEC3"
    },
    {
      "bufferView": 2,
      "byteOffset": 4339984,
      "componentType": 5126,
      "count": 65532,
      "max": [
        0.8235294222831726,
        0.7450980544090271,
        0.6509804129600525,
        1.0
      ],
      "min": [
        0.0,
        0.0,
        0.0,
        1.0
      ],
      "type": "VEC4"
    },
    {
      "bufferView": 0,
      "byteOffset": 5670108,
      "componentType": 5125,
      "count": 348213,
      "type": "SCALAR"
    },
    {
      "bufferView": 1,
      "byteOffset": 8082744,
      "componentType": 5126,
      "count": 65532,
      "max": [
        630.0,
        75.85494232177734,
        429.9934997558594
      ],
      "min": [
        8.0,
        75.0,
        188.0
      ],
      "type": "VEC3"
    },
    {
      "bufferView": 1,
      "byteOffset": 8869128,
      "componentType": 5126,
      "count": 65532,
      "max": [
        5.449567652249243e-06,
        1.0,
        0.6352760195732117
      ],
      "min": [
        -1.0172526344831567e-05,
        0.7722851634025574,
        -0.00016117095947265625
      ],
      "type": "VEC3"
    },
    {
      "bufferView": 2,
      "byteOffset": 5388496,
      "componentType": 5126,
      "count": 65532,
      "max": [
        0.8196078538894653,
        0.7568627595901489,
        0.6431372761726379,
        1.0
      ],
      "min": [
        0.13725490868091583,
        0.10980392247438431,
        0.0784313753247261,
        1.0
      ],
      "type": "VEC4"
    },
    {
      "bufferView": 0,
      "byteOffset": 7062960,
      "componentType": 5125,
      "count": 367974,
      "type": "SCALAR"
    },
    {
      "bufferView": 1,
      "byteOffset": 9655512,
      "componentType": 5126,
      "count": 65532,
      "max": [
        719.6444091796875,
        75.85494232177734,
        429.99517822265625
      ],
      "min": [
        -20.349905014038086,
        59.855010986328125,
        179.99581909179688
      ],
      "type": "VEC3"
    },
    {
      "bufferView": 1,
      "byteOffset": 10441896,
      "componentType": 5126,
      "count": 65532,
      "max": [
        0.9999933838844299,
        1.0,
        1.0
      ],
      "min": [
        -0.9999999403953552,
        -1.0,
        -1.0
      ],
      "type": "VEC3"
    },
    {
      "bufferView": 2,
      "byteOffset": 6437008,
      "componentType": 5126,
      "count": 65532,
      "max": [
        0.8274509906768799,
        0.7607843279838562,
        0.6509804129600525,
        1.0
      ],
      "min": [
        0.0,
        0.0,
        0.0,
        1.0
      ],
      "type": "VEC4"
    },
    {
      "bufferView": 0,
      "byteOffset": 8534856,
      "componentType": 5125,
      "count": 321909,
      "type": "SCALAR"
    },
    {
      "bufferView": 1,
      "byteOffset": 11228280,
      "componentType": 5126,
      "count": 65231,
      "max": [
        719.6480102539063,
        181.05166625976563,
        525.177490234375
      ],
      "min": [
        -20.350183486938477,
        59.855010986328125,
        335.0
      ],
      "type": "VEC3"
    },
    {
      "bufferView": 1,
      "byteOffset": 12011052,
      "componentType": 5126,
      "count": 65231,
      "max": [
        1.0,
        1.0,
        1.0
      ],
      "min": [
        -1.0,
        -1.0,
        -1.0
      ],
      "type": "VEC3"
    },
    {
      "bufferView": 2,
      "byteOffset": 7485520,
      "componentType": 5126,
      "count": 65231,
      "max": [
        0.7882353067398071,
        0.7215686440467834,
        0.5960784554481506,
        1.0
      ],
      "min": [
        0.0,
        0.0,
        0.0,
        1.0
      ],
      "type": "VEC4"
    },
    {
      "bufferView": 0,
      "byteOffset": 9822492,
      "componentType": 5125,
      "count": 335979,
      "type": "SCALAR"
    }
  ],
  "asset": {
    "extras": {
      "author": "IIEPBblUI (https://sketchfab.com/IIEPBblUI)",
      "license": "CC-BY-4.0 (http://creativecommons.org/licenses/by/4.0/)",
      "source": "https://sketchfab.com/3d-models/school-desk-0cb66965d8224328a829fadcf35c2f8f",
      "title": "School Desk"
    },
    "generator": "Sketchfab-12.66.0",
    "version": "2.0"
  },
  "bufferViews": [
    {
      "buffer": 0,
      "byteLength": 11166408,
      "name": "floatBufferViews",
      "target": 34963
    },
    {
      "buffer": 0,
      "byteLength": 12793824,
      "byteOffset": 11166408,
      "byteStride": 12,
      "name": "floatBufferViews",
      "target": 34962
    },
    {
      "buffer": 0,
      "byteLength": 8529216,
      "byteOffset": 23960232,
      "byteStride": 16,
      "name": "floatBufferViews",
      "target": 34962
    }
  ],
  "buffers": [
    {
      "byteLength": 32489448,
      "uri": "scene.bin"
    }
  ],
  "materials": [
    {
      "doubleSided": true,
      "name": "Bolts",
      "pbrMetallicRoughness": {
        "metallicFactor": 0.0,
        "roughnessFactor": 0.6
      }
    },
    {
      "doubleSided": true,
      "name": "Hooks",
      "pbrMetallicRoughness": {
        "metallicFactor": 0.0,
        "roughnessFactor": 0.6
      }
    },
    {
      "doubleSided": true,
      "name": "Metal",
      "pbrMetallicRoughness": {
        "metallicFactor": 0.0,
        "roughnessFactor": 0.6
      }
    },
    {
      "doubleSided": true,
      "name": "Plastic",
      "pbrMetallicRoughness": {
        "metallicFactor": 0.0,
        "roughnessFactor": 0.6
      }
    },
    {
      "doubleSided": true,
      "name": "Wood",
      "pbrMetallicRoughness": {
        "metallicFactor": 0.0,
        "roughnessFactor": 0.6
      }
    }
  ],
  "meshes": [
    {
      "name": "Object_0",
      "primitives": [
        {
          "attributes": {
            "COLOR_0": 2,
            "NORMAL": 1,
            "POSITION": 0
          },
          "indices": 3,
          "material": 0,
          "mode": 4
        }
      ]
    },
    {
      "name": "Object_1",
      "primitives": [
        {
          "attributes": {
            "COLOR_0": 6,
            "NORMAL": 5,
            "POSITION": 4
          },
          "indices": 7,
          "material": 1,
          "mode": 4
        }
      ]
    },
    {
      "name": "Object_2",
      "primitives": [
        {
          "attributes": {
            "COLOR_0": 10,
            "NORMAL": 9,
            "POSITION": 8
          },
          "indices": 11,
          "material": 2,
          "mode": 4
        }
      ]
    },
    {
      "name": "Object_3",
      "primitives": [
        {
          "attributes": {
            "COLOR_0": 14,
            "NORMAL": 13,
            "POSITION": 12
          },
          "indices": 15,
          "material": 3,
          "mode": 4
        }
      ]
    },
    {
      "name": "Object_4",
      "primitives": [
        {
          "attributes": {
            "COLOR_0": 18,
            "NORMAL": 17,
            "POSITION": 16
          },
          "indices": 19,
          "material": 4,
          "mode": 4
        }
      ]
    },
    {
      "name": "Object_5",
      "primitives": [
        {
          "attributes": {
            "COLOR_0": 22,
            "NORMAL": 21,
            "POSITION": 20
          },
          "indices": 23,
          "material": 4,
          "mode": 4
        }
      ]
    },
    {
      "name": "Object_6",
      "primitives": [
        {
          "attributes": {
            "COLOR_0": 26,
            "NORMAL": 25,
            "POSITION": 24
          },
          "indices": 27,
          "material": 4,
          "mode": 4
        }
      ]
    },
    {
      "name": "Object_7",
      "primitives": [
        {
          "attributes": {
            "COLOR_0": 30,
            "NORMAL": 29,
            "POSITION": 28
          },
          "indices": 31,
          "material": 4,
          "mode": 4
        }
      ]
    },
    {
      "name": "Object_8",
      "primitives": [
        {
          "attributes": {
            "COLOR_0": 34,
            "NORMAL": 33,
            "POSITION": 32
          },
          "indices": 35,
          "material": 4,
          "mode": 4
        }
      ]
    },
    {
      "name": "Object_9",
      "primitives": [
        {
          "attributes": {
            "COLOR_0": 38,
            "NORMAL": 37,
            "POSITION": 36
          },
          "indices": 39,
          "material": 4,
          "mode": 4
        }
      ]
    },
    {
      "name": "Object_10",
      "primitives": [
        {
          "attributes": {
            "COLOR_0": 42,
            "NORMAL": 41,
            "POSITION": 40
          },
          "indices": 43,
          "material": 4,
          "mode": 4
        }
      ]
    }
  ],
  "nodes": [
    {
      "children": [
        1
      ],
      "matrix": [
        1.0,
        0.0,
        0.0,
        0.0,
        0.0,
        2.220446049250313e-16,
        -1.0,
        0.0,
        0.0,
        1.0,
        2.220446049250313e-16,
        0.0,
        0.0,
        0.0,
        0.0,
        1.0
      ],
      "name": "Sketchfab_model"
    },
    {
      "children": [
        2,
        3,
        4,
        5,
        6,
        7,
        8,
        9,
        10,
        11,
        12
      ],
      "name": "School desk.obj.cleaner.materialmerger.gles"
    },
    {
      "mesh": 0,
      "name": "Object_2"
    },
    {
      "mesh": 1,
      "name": "Object_3"
    },
    {
      "mesh": 2,
      "name": "Object_4"
    },
    {
      "mesh": 3,
      "name": "Object_5"
    },
    {
      "mesh": 4,
      "name": "Object_6"
    },
    {
      "mesh": 5,
      "name": "Object_7"
    },
    {
      "mesh": 6,
      "name": "Object_8"
    },
    {
      "mesh": 7,
      "name": "Object_9"
    },
    {
      "mesh": 8,
      "name": "Object_10"
    },
    {
      "mesh": 9,
      "name": "Object_11"
    },
    {
      "mesh": 10,
      "name": "Object_12"
    }
  ],
  "scene": 0,
  "scenes": [
    {
      "name": "Sketchfab_Scene",
      "nodes": [
        0
      ]
    }
  ]
}
