{
  "accessors": [
    {
      "bufferView": 2,
      "componentType": 5126,
      "count": 2314,
      "max": [
        0.19877447187900543,
        0.21370893716812134,
        0.7359760403633118
      ],
      "min": [
        -0.19877448678016663,
        -0.24398592114448547,
        0.0
      ],
      "type": "VEC3"
    },
    {
      "bufferView": 2,
      "byteOffset": 27768,
      "componentType": 5126,
      "count": 2314,
      "max": [
        1.0,
        1.0,
        1.0
      ],
      "min": [
        -1.0,
        -1.0,
        -1.0
      ],
      "type": "VEC3"
    },
    {
      "bufferView": 3,
      "componentType": 5126,
      "count": 2314,
      "max": [
        1.0,
        1.0,
        1.0,
        1.0
      ],
      "min": [
        -0.9999756217002869,
        -1.0,
        -1.0,
        1.0
      ],
      "type": "VEC4"
    },
    {
      "bufferView": 1,
      "componentType": 5126,
      "count": 2314,
      "max": [
        0.9900087118148804,
        0.9656773209571838
      ],
      "min": [
        0.009991197846829891,
        0.009991197846829891
      ],
      "type": "VEC2"
    },
    {
      "bufferView": 0,
      "componentType": 5125,
      "count": 11376,
      "type": "SCALAR"
    }
  ],
  "asset": {
    "extras": {
      "author": "Toxic_Aura (https://sketchfab.com/toxicaura_)",
      "license": "CC-BY-4.0 (http://creativecommons.org/licenses/by/4.0/)",
      "source": "https://sketchfab.com/3d-models/school-chair-a253aaeff97549348566a5ee8e0f23c4",
      "title": "School Chair"
    },
    "generator": "Sketchfab-12.68.0",
    "version": "2.0"
  },
  "bufferViews": [
    {
      "buffer": 0,
      "byteLength": 45504,
      "name": "floatBufferViews",
      "target": 34963
    },
    {
      "buffer": 0,
      "byteLength": 18512,
      "byteOffset": 45504,
      "byteStride": 8,
      "name": "floatBufferViews",
      "target": 34962
    },
    {
      "buffer": 0,
      "byteLength": 55536,
      "byteOffset": 64016,
      "byteStride": 12,
      "name": "floatBufferViews",
      "target": 34962
    },
    {
      "buffer": 0,
      "byteLength": 37024,
      "byteOffset": 119552,
      "byteStride": 16,
      "name": "floatBufferViews",
      "target": 34962
    }
  ],
  "buffers": [
    {
      "byteLength": 156576,
      "uri": "scene.bin"
    }
  ],
  "images": [
    {
      "uri": "textures/SchoolChair_Mat_baseColor.png"
    },
    {
      "uri": "textures/SchoolChair_Mat_metallicRoughness.png"
    },
    {
      "uri": "textures/SchoolChair_Mat_normal.png"
    }
  ],
  "materials": [
    {
      "doubleSided": true,
      "name": "SchoolChair_Mat",
      "normalTexture": {
        "index": 2
      },
      "pbrMetallicRoughness": {
        "baseColorTexture": {
          "index": 0
        },
        "metallicFactor": 0.35976136200021186,
        "metallicRoughnessTexture": {
          "index": 1
        }
      }
    }
  ],
  "meshes": [
    {
      "name": "SchoolChair_SchoolChair_Mat_0",
      "primitives": [
        {
          "attributes": {
            "NORMAL": 1,
            "POSITION": 0,
            "TANGENT": 2,
            "TEXCOORD_0": 3
          },
          "indices": 4,
          "material": 0,
          "mode": 4
        }
      ]
    }
  ],
  "nodes": [
    {
      "children": [
        1
      ],
      "matrix": [
        1.0,
        0.0,
        0.0,
        0.0,
        0.0,
        2.220446049250313e-16,
        -1.0,
        0.0,
        0.0,
        1.0,
        2.220446049250313e-16,
        0.0,
        0.0,
        0.0,
        0.0,
        1.0
      ],
      "name": "Sketchfab_model"
    },
    {
      "children": [
        2
      ],
      "matrix": [
        1.0,
        0.0,
        0.0,
        0.0,
        0.0,
        0.0,
        1.0,
        0.0,
        0.0,
        -1.0,
        0.0,
        0.0,
        0.0,
        0.0,
        0.0,
        1.0
      ],
      "name": "e5953a730cbb4503affd601be42f7e80.fbx"
    },
    {
      "children": [
        3
      ],
      "name": "RootNode"
    },
    {
      "children": [
        4
      ],
      "matrix": [
        -119.00000762939315,
        1.4573300055046885e-14,
        1.7968501244649138e-05,
        0.0,
        1.7968501244649087e-05,
        8.984250667884572e-06,
        119.00000762939283,
        0.0,
        -1.342010806708419e-12,
        119.00000762939418,
        -8.984250641461262e-06,
        0.0,
        0.0,
        0.0,
        0.0,
        1.0
      ],
      "name": "SchoolChair"
    },
    {
      "mesh": 0,
      "name": "SchoolChair_SchoolChair_Mat_0"
    }
  ],
  "samplers": [
    {
      "magFilter": 9729,
      "minFilter": 9987,
      "wrapS": 10497,
      "wrapT": 10497
    }
  ],
  "scene": 0,
  "scenes": [
    {
      "name": "Sketchfab_Scene",
      "nodes": [
        0
      ]
    }
  ],
  "textures": [
    {
      "sampler": 0,
      "source": 0
    },
    {
      "sampler": 0,
      "source": 1
    },
    {
      "sampler": 0,
      "source": 2
    }
  ]
}
